<svg width="512.008" height="512.008" xmlns="http://www.w3.org/2000/svg">

 <g>
  <title>background</title>
  <rect fill="none" id="canvas_background" height="514.004" width="514.004" y="-1" x="-1"/>
 </g>
 <g>
  <title>Layer 1</title>
  <g id="svg_1">
   <g id="svg_2">
    <path id="svg_3" d="m222.31,179.87089l-85.333,-85.333c-1.596,-1.604 -3.763,-2.5 -6.033,-2.5l-122.394,0c-7.603,0 -11.409,9.19 -6.033,14.566l73.267,73.267c3.328,3.328 3.328,8.738 0,12.066l-73.267,73.267c-5.376,5.376 -1.57,14.566 6.033,14.566l122.394,0c2.261,0 4.437,-0.896 6.033,-2.5l85.333,-85.333c3.337,-3.336 3.337,-8.738 0,-12.066z"/>
   </g>
  </g>
  <g id="svg_4">
   <g id="svg_5">
    <path id="svg_6" d="m512,271.23689c0,-4.71 -3.823,-8.533 -8.533,-8.533l-213.334,0c-4.71,0 -8.533,3.823 -8.533,8.533l0,34.125c0,4.71 3.763,8.533 8.482,8.533c36.156,-0.008 177.289,-0.008 213.444,0c4.71,0 8.482,-3.823 8.482,-8.533l-0.008,-34.125z"/>
   </g>
  </g>
  <g id="svg_7">
   <g id="svg_8">
    <path id="svg_9" d="m503.466,330.97089l-213.333,0c-4.71,0 -8.533,3.823 -8.533,8.533l0,162.133c0,4.71 3.823,8.533 8.533,8.533l213.333,0c4.71,0 8.533,-3.823 8.533,-8.533l0,-162.133c0.001,-4.71 -3.822,-8.533 -8.533,-8.533zm-153.6,119.466l-25.6,0c-4.719,0 -8.533,-3.814 -8.533,-8.533s3.814,-8.533 8.533,-8.533l25.6,0c4.719,0 8.533,3.814 8.533,8.533s-3.814,8.533 -8.533,8.533zm0,-59.733l-25.6,0c-4.719,0 -8.533,-3.814 -8.533,-8.533s3.814,-8.533 8.533,-8.533l25.6,0c4.719,0 8.533,3.814 8.533,8.533s-3.814,8.533 -8.533,8.533zm119.467,59.733l-85.333,0c-4.719,0 -8.533,-3.814 -8.533,-8.533s3.814,-8.533 8.533,-8.533l85.333,0c4.719,0 8.533,3.814 8.533,8.533s-3.814,8.533 -8.533,8.533zm0,-59.733l-85.333,0c-4.719,0 -8.533,-3.814 -8.533,-8.533s3.814,-8.533 8.533,-8.533l85.333,0c4.719,0 8.533,3.814 8.533,8.533s-3.814,8.533 -8.533,8.533z"/>
   </g>
  </g>
  <g id="svg_10">
   <g id="svg_11">
    <path id="svg_12" d="m439.168,179.87089l-85.333,-85.333c-1.604,-1.604 -3.772,-2.5 -6.033,-2.5l-122.403,0c-7.603,0 -11.409,9.19 -6.033,14.566l73.267,73.267c3.337,3.337 3.337,8.738 0,12.066l-73.267,73.267c-5.376,5.376 -1.57,14.566 6.033,14.566l30.601,0c4.71,0 8.533,-3.823 8.533,-8.533l0,-17.067c0,-4.71 3.823,-8.533 8.533,-8.533l108.868,0c2.261,0 4.437,-0.896 6.033,-2.5l51.2,-51.2c3.329,-3.328 3.329,-8.738 0.001,-12.066z"/>
   </g>
  </g>
  <g id="svg_13"/>
  <g id="svg_14"/>
  <g id="svg_15"/>
  <g id="svg_16"/>
  <g id="svg_17"/>
  <g id="svg_18"/>
  <g id="svg_19"/>
  <g id="svg_20"/>
  <g id="svg_21"/>
  <g id="svg_22"/>
  <g id="svg_23"/>
  <g id="svg_24"/>
  <g id="svg_25"/>
  <g id="svg_26"/>
  <g id="svg_27"/>
 </g>
</svg>