<?xml version="1.0" encoding="iso-8859-1"?>
<!-- Generator: Adobe Illustrator 19.0.0, SVG Export Plug-In . SVG Version: 6.00 Build 0)  -->
<svg version="1.1" id="Layer_1" xmlns="http://www.w3.org/2000/svg" xmlns:xlink="http://www.w3.org/1999/xlink" x="0px" y="0px"
	 viewBox="0 0 512 512" style="enable-background:new 0 0 512 512;" xml:space="preserve">
<rect x="153.607" y="155.37" style="fill:#CFF09E;" width="201.275" height="201.275"/>
<g>
	<path style="fill:#507C5C;" d="M354.876,371.827H153.604c-8.388,0-15.191-6.802-15.191-15.191V155.364
		c0-8.388,6.802-15.191,15.191-15.191h201.272c8.388,0,15.191,6.802,15.191,15.191v201.272
		C370.067,365.026,363.266,371.827,354.876,371.827z M168.795,341.445h170.891V170.555H168.795V341.445z"/>
	<path style="fill:#507C5C;" d="M421.337,407.906H102.334V104.094h72.915c2.576,0,4.999-0.647,7.124-1.777
		c6.646-1.621,11.584-7.598,11.584-14.742V16.95c0-8.388-6.802-15.191-15.191-15.191c-8.388,0-15.191,6.802-15.191,15.191v56.763
		H87.144c-8.388,0-15.191,6.802-15.191,15.191v72.915H15.191C6.802,161.818,0,168.621,0,177.009S6.802,192.2,15.191,192.2h56.763
		v48.61H45.591c-8.388,0-15.191,6.802-15.191,15.191s6.802,15.191,15.191,15.191h26.362v48.61H15.191
		C6.802,319.8,0,326.603,0,334.991s6.802,15.191,15.191,15.191h56.763v72.915c0,8.388,6.802,15.191,15.191,15.191h72.915v56.763
		c0,8.388,6.802,15.191,15.191,15.191c8.388,0,15.191-6.802,15.191-15.191v-56.763h48.61v26.362c0,8.388,6.802,15.191,15.191,15.191
		c8.388,0,15.191-6.802,15.191-15.191v-26.362h48.61v56.763c0,8.388,6.802,15.191,15.191,15.191s15.191-6.802,15.191-15.191v-56.763
		h72.915c8.388,0,15.191-6.802,15.191-15.191S429.726,407.906,421.337,407.906z"/>
	<path style="fill:#507C5C;" d="M496.809,319.8h-56.763v-48.61h26.362c8.388,0,15.191-6.802,15.191-15.191
		s-6.802-15.191-15.191-15.191h-26.362V192.2h56.763c8.388,0,15.191-6.802,15.191-15.191c0-8.388-6.802-15.191-15.191-15.191
		h-56.763V88.904c0-8.388-6.802-15.191-15.191-15.191h-72.915V16.95c0-8.388-6.802-15.191-15.191-15.191S321.56,8.562,321.56,16.95
		v56.763h-48.61V47.351c0-8.388-6.802-15.191-15.191-15.191s-15.191,6.802-15.191,15.191v40.223c0,0.225,0.024,0.444,0.033,0.665
		c-0.009,0.222-0.033,0.441-0.033,0.665c0,8.388,6.802,15.191,15.191,15.191h151.906v223.285c-1.429,2.241-2.189,4.835-2.189,7.612
		c0,8.388,6.802,15.191,15.191,15.191h70.624c8.388,0,15.191-6.802,15.191-15.191S501.68,319.8,496.809,319.8z"/>
</g>
<g>
</g>
<g>
</g>
<g>
</g>
<g>
</g>
<g>
</g>
<g>
</g>
<g>
</g>
<g>
</g>
<g>
</g>
<g>
</g>
<g>
</g>
<g>
</g>
<g>
</g>
<g>
</g>
<g>
</g>
</svg>
